<svg width="59" height="59" viewBox="0 0 59 59" fill="none" xmlns="http://www.w3.org/2000/svg">
<path d="M29.5 0C45.6543 0 58.75 13.0957 58.75 29.25C58.75 45.4043 45.6543 58.5 29.5 58.5C13.3457 58.5 0.25 45.4043 0.25 29.25C0.25 13.0957 13.3457 0 29.5 0Z" fill="#FF7847"/>
<path d="M29.5 0C45.6543 0 58.75 13.0957 58.75 29.25C58.75 45.4043 45.6543 58.5 29.5 58.5C13.3457 58.5 0.25 45.4043 0.25 29.25C0.25 13.0957 13.3457 0 29.5 0Z" stroke="#E5E7EB"/>
<path d="M39.0977 47.5312H19.9023V10.9688H39.0977V47.5312Z" stroke="#E5E7EB"/>
<g clip-path="url(#clip0_1380_4343)">
<path d="M28.5909 16.2708C29.1407 15.9058 29.8605 15.9058 30.4104 16.2708L31.3002 16.8556C31.6001 17.0506 31.95 17.1455 32.3049 17.1255L33.3697 17.0606C34.0295 17.0206 34.6494 17.3805 34.9443 17.9703L35.4242 18.9251C35.5841 19.245 35.8441 19.5 36.159 19.6599L37.1238 20.1448C37.7136 20.4397 38.0735 21.0596 38.0336 21.7194L37.9686 22.7842C37.9486 23.1391 38.0435 23.494 38.2385 23.7889L38.8284 24.6787C39.1933 25.2286 39.1933 25.9484 38.8284 26.4983L38.2385 27.393C38.0435 27.693 37.9486 28.0429 37.9686 28.3978L38.0336 29.4625C38.0735 30.1224 37.7136 30.7422 37.1238 31.0371L36.169 31.517C35.8491 31.677 35.5941 31.9369 35.4342 32.2519L34.9493 33.2166C34.6544 33.8065 34.0345 34.1664 33.3747 34.1264L32.3099 34.0614C31.955 34.0414 31.6001 34.1364 31.3052 34.3313L30.4154 34.9212C29.8655 35.2861 29.1457 35.2861 28.5959 34.9212L27.7011 34.3313C27.4011 34.1364 27.0512 34.0414 26.6963 34.0614L25.6316 34.1264C24.9717 34.1664 24.3519 33.8065 24.057 33.2166L23.5771 32.2618C23.4171 31.9419 23.1572 31.687 22.8423 31.527L21.8775 31.0421C21.2876 30.7472 20.9277 30.1274 20.9677 29.4675L21.0327 28.4028C21.0527 28.0479 20.9577 27.693 20.7628 27.398L20.1779 26.5033C19.813 25.9534 19.813 25.2336 20.1779 24.6837L20.7628 23.7939C20.9577 23.494 21.0527 23.1441 21.0327 22.7892L20.9677 21.7244C20.9277 21.0646 21.2876 20.4447 21.8775 20.1498L22.8323 19.6699C23.1522 19.505 23.4121 19.245 23.5721 18.9251L24.052 17.9703C24.3469 17.3805 24.9667 17.0206 25.6266 17.0606L26.6913 17.1255C27.0462 17.1455 27.4011 17.0506 27.6961 16.8556L28.5909 16.2708ZM33.4997 25.5935C33.4997 24.5329 33.0783 23.5157 32.3284 22.7657C31.5784 22.0158 30.5612 21.5945 29.5006 21.5945C28.44 21.5945 27.4229 22.0158 26.6729 22.7657C25.9229 23.5157 25.5016 24.5329 25.5016 25.5935C25.5016 26.6541 25.9229 27.6713 26.6729 28.4212C27.4229 29.1712 28.44 29.5925 29.5006 29.5925C30.5612 29.5925 31.5784 29.1712 32.3284 28.4212C33.0783 27.6713 33.4997 26.6541 33.4997 25.5935ZM19.968 38.0804L22.1224 32.9567C22.1324 32.9617 22.1374 32.9667 22.1424 32.9767L22.6223 33.9314C23.2072 35.0912 24.4219 35.796 25.7216 35.721L26.7863 35.656C26.7963 35.656 26.8113 35.656 26.8213 35.666L27.7111 36.2559C27.966 36.4208 28.2359 36.5508 28.5159 36.6408L26.6363 41.1047C26.5214 41.3796 26.2664 41.5646 25.9715 41.5896C25.6766 41.6146 25.3916 41.4796 25.2317 41.2297L23.6221 38.7653L20.8178 39.1802C20.5328 39.2201 20.2479 39.1052 20.0679 38.8802C19.888 38.6553 19.853 38.3454 19.963 38.0804H19.968ZM32.3649 41.0997L30.4854 36.6408C30.7653 36.5508 31.0353 36.4258 31.2902 36.2559L32.18 35.666C32.19 35.661 32.2 35.656 32.215 35.656L33.2797 35.721C34.5794 35.796 35.7941 35.0912 36.379 33.9314L36.8588 32.9767C36.8638 32.9667 36.8688 32.9617 36.8788 32.9567L39.0383 38.0804C39.1483 38.3454 39.1083 38.6503 38.9333 38.8802C38.7584 39.1102 38.4684 39.2251 38.1835 39.1802L35.3792 38.7653L33.7696 41.2247C33.6096 41.4746 33.3247 41.6096 33.0298 41.5846C32.7348 41.5596 32.4799 41.3696 32.3649 41.0997Z" fill="white"/>
</g>
<defs>
<clipPath id="clip0_1380_4343">
<path d="M19.9023 15.9961H39.0977V41.5898H19.9023V15.9961Z" fill="white"/>
</clipPath>
</defs>
</svg>
