<svg width="59" height="59" viewBox="0 0 59 59" fill="none" xmlns="http://www.w3.org/2000/svg">
<path d="M29.5 0C45.6543 0 58.75 13.0957 58.75 29.25C58.75 45.4043 45.6543 58.5 29.5 58.5C13.3457 58.5 0.25 45.4043 0.25 29.25C0.25 13.0957 13.3457 0 29.5 0Z" fill="#4F46E5"/>
<path d="M29.5 0C45.6543 0 58.75 13.0957 58.75 29.25C58.75 45.4043 45.6543 58.5 29.5 58.5C13.3457 58.5 0.25 45.4043 0.25 29.25C0.25 13.0957 13.3457 0 29.5 0Z" stroke="#E5E7EB"/>
<path d="M42.2969 47.5312H16.7031V10.9688H42.2969V47.5312Z" stroke="#E5E7EB"/>
<g clip-path="url(#clip0_1380_4361)">
<path d="M34.2988 28.793C34.2988 29.9027 34.2388 30.9724 34.1339 31.9922H24.8661C24.7562 30.9724 24.7012 29.9027 24.7012 28.793C24.7012 27.6832 24.7612 26.6135 24.8661 25.5938H34.1339C34.2438 26.6135 34.2988 27.6832 34.2988 28.793ZM35.7385 25.5938H41.892C42.1569 26.6185 42.2969 27.6882 42.2969 28.793C42.2969 29.8977 42.1569 30.9674 41.892 31.9922H35.7385C35.8435 30.9624 35.8984 29.8927 35.8984 28.793C35.8984 27.6932 35.8435 26.6235 35.7385 25.5938ZM41.3671 23.9941H35.5335C35.0336 20.7999 34.0439 18.1256 32.7692 16.416C36.6832 17.4507 39.8675 20.29 41.3621 23.9941H41.3671ZM33.9139 23.9941H25.0861C25.391 22.1746 25.8609 20.565 26.4357 19.2603C26.9606 18.0806 27.5455 17.2258 28.1103 16.6859C28.6702 16.1561 29.1351 15.9961 29.5 15.9961C29.8649 15.9961 30.3298 16.1561 30.8897 16.6859C31.4545 17.2258 32.0394 18.0806 32.5643 19.2603C33.1441 20.56 33.609 22.1696 33.9139 23.9941ZM23.4665 23.9941H17.6329C19.1325 20.29 22.3118 17.4507 26.2308 16.416C24.9561 18.1256 23.9664 20.7999 23.4665 23.9941ZM17.108 25.5938H23.2615C23.1565 26.6235 23.1016 27.6932 23.1016 28.793C23.1016 29.8927 23.1565 30.9624 23.2615 31.9922H17.108C16.8431 30.9674 16.7031 29.8977 16.7031 28.793C16.7031 27.6882 16.8431 26.6185 17.108 25.5938ZM26.4357 38.3206C25.8559 37.021 25.391 35.4114 25.0861 33.5918H33.9139C33.609 35.4114 33.1391 37.021 32.5643 38.3206C32.0394 39.5004 31.4545 40.3551 30.8897 40.895C30.3298 41.4299 29.8649 41.5898 29.5 41.5898C29.1351 41.5898 28.6702 41.4299 28.1103 40.9C27.5455 40.3601 26.9606 39.5054 26.4357 38.3256V38.3206ZM23.4665 33.5918C23.9664 36.786 24.9561 39.4604 26.2308 41.1699C22.3118 40.1352 19.1325 37.2959 17.6329 33.5918H23.4665ZM41.3671 33.5918C39.8675 37.2959 36.6882 40.1352 32.7742 41.1699C34.0489 39.4604 35.0336 36.786 35.5385 33.5918H41.3671Z" fill="white"/>
</g>
<defs>
<clipPath id="clip0_1380_4361">
<path d="M16.7031 15.9961H42.2969V41.5898H16.7031V15.9961Z" fill="white"/>
</clipPath>
</defs>
</svg>
