<svg width="59" height="59" viewBox="0 0 59 59" fill="none" xmlns="http://www.w3.org/2000/svg">
<path d="M29.5 0C45.6543 0 58.75 13.0957 58.75 29.25C58.75 45.4043 45.6543 58.5 29.5 58.5C13.3457 58.5 0.25 45.4043 0.25 29.25C0.25 13.0957 13.3457 0 29.5 0Z" fill="#16A34A"/>
<path d="M29.5 0C45.6543 0 58.75 13.0957 58.75 29.25C58.75 45.4043 45.6543 58.5 29.5 58.5C13.3457 58.5 0.25 45.4043 0.25 29.25C0.25 13.0957 13.3457 0 29.5 0Z" stroke="#E5E7EB"/>
<path d="M40.6973 47.5312H18.3027V10.9688H40.6973V47.5312Z" stroke="#E5E7EB"/>
<g clip-path="url(#clip0_1380_4352)">
<path d="M40.2272 21.2645C40.8521 21.8894 40.8521 22.9041 40.2272 23.529L27.4303 36.3259C26.8055 36.9507 25.7907 36.9507 25.1659 36.3259L18.7675 29.9274C18.1426 29.3026 18.1426 28.2878 18.7675 27.663C19.3923 27.0381 20.4071 27.0381 21.0319 27.663L26.3006 32.9267L37.9678 21.2645C38.5926 20.6397 39.6074 20.6397 40.2322 21.2645H40.2272Z" fill="white"/>
</g>
<defs>
<clipPath id="clip0_1380_4352">
<path d="M18.3027 15.9961H40.6973V41.5898H18.3027V15.9961Z" fill="white"/>
</clipPath>
</defs>
</svg>
