<svg width="51" height="51" viewBox="0 0 51 51" fill="none" xmlns="http://www.w3.org/2000/svg">
<path d="M25.7407 23.7055C23.4491 23.7055 21.5741 25.5805 21.5741 27.8721C21.5741 30.1638 23.4491 32.0388 25.7407 32.0388C28.0324 32.0388 29.9074 30.1638 29.9074 27.8721C29.9074 25.5805 28.0324 23.7055 25.7407 23.7055ZM38.2407 27.8721C38.2399 26.0992 37.8619 24.3467 37.1318 22.7311C36.4018 21.1154 35.3364 19.6736 34.0064 18.5012C32.6764 17.3289 31.1123 16.4528 29.4178 15.9313C27.7233 15.4098 25.9373 15.2547 24.1782 15.4763C18.7199 16.143 14.2199 20.4971 13.3866 25.9346C12.6991 30.4138 14.4074 34.4971 17.4074 37.1846C18.4074 38.0805 19.9699 37.8721 20.6574 36.7055L20.6782 36.6846C21.1782 35.8096 20.9699 34.7471 20.2199 34.0596C19.09 33.0518 18.2564 31.7549 17.8085 30.3086C17.3607 28.8623 17.3156 27.3213 17.6782 25.8513C18.0332 24.3842 18.7844 23.0429 19.8499 21.9738C20.9154 20.9047 22.2541 20.1488 23.7199 19.7888C24.9484 19.4813 26.2308 19.4579 27.4697 19.7204C28.7086 19.9829 29.8714 20.5244 30.8696 21.3037C31.8678 22.083 32.6753 23.0796 33.2305 24.2178C33.7858 25.3559 34.0743 26.6057 34.0741 27.8721C34.0741 30.3305 32.9907 32.518 31.3032 34.0388C30.5532 34.7055 30.3241 35.7888 30.8241 36.6638L30.8449 36.6846C31.4907 37.7888 32.9907 38.1221 33.9699 37.268C35.3101 36.0965 36.3845 34.6522 37.1211 33.0317C37.8576 31.4113 38.2394 29.6521 38.2407 27.8721ZM23.3032 7.18463C13.6782 8.26796 5.9074 16.2055 5.01157 25.8513C4.65839 29.4379 5.24485 33.0546 6.71328 36.3458C8.18172 39.637 10.4815 42.4893 13.3866 44.6221C14.3866 45.3513 15.8032 45.0388 16.4282 43.9763C16.9491 43.0805 16.7199 41.9138 15.8866 41.2888C11.1366 37.768 8.2824 31.8096 9.30324 25.2471C10.4282 17.9555 16.5116 12.143 23.8449 11.3305C33.8866 10.1846 42.4074 18.0388 42.4074 27.8721C42.4074 33.393 39.7199 38.2471 35.5949 41.2888C34.7616 41.9138 34.5324 43.0596 35.0532 43.9763C35.6782 45.0596 37.0949 45.3513 38.0949 44.6221C40.7253 42.6931 42.8639 40.1712 44.3372 37.2609C45.8104 34.3506 46.5768 31.134 46.5741 27.8721C46.5741 15.5596 35.8866 5.74713 23.3032 7.18463Z" fill="#FEF7F1"/>
</svg>
