<svg width="55" height="21" viewBox="0 0 55 21" fill="none" xmlns="http://www.w3.org/2000/svg">
<path d="M48.7234 12.0138C46.6818 12.0687 44.6402 12.0961 42.6451 12.1784C39.6756 12.3155 37.402 12.7818 36.01 13.5771C35.0821 14.1119 34.2469 14.6605 33.5509 15.2364C31.695 16.7311 30.5814 18.2944 29.1894 19.8165C29.0038 20.0222 28.9574 20.2553 28.8182 20.461C28.7718 20.5433 28.7254 20.6393 28.5862 20.7079C28.2614 20.9136 27.6582 21.0233 26.9623 20.9958C26.2663 20.9684 25.7095 20.8039 25.6631 20.5707C25.6167 20.4473 25.6167 20.3102 25.7095 20.1731C25.9879 19.652 25.8951 19.1446 25.7095 18.6372C25.3383 17.6362 24.8279 16.6351 23.7607 15.6752C22.4152 14.537 20.3736 13.536 17.1721 12.7543C15.5481 12.3567 13.8778 11.9727 12.2074 11.575C9.65547 10.9717 6.73234 10.574 3.71641 10.2175C3.25242 10.1626 2.69564 10.1489 2.13885 10.094C1.76766 10.0666 1.35007 10.0392 0.978877 9.98433C0.190096 9.87463 -0.134696 9.64151 0.0508994 9.40838C0.236495 9.18898 0.932479 9.05185 1.76766 9.07927C2.37084 9.09299 3.02043 9.13413 3.62362 9.18898C7.05713 9.50438 10.5835 9.43581 14.1098 9.33982C15.4089 9.31239 16.7081 9.27126 17.9609 9.18898C20.884 8.98328 23.1576 8.50333 24.5031 7.69426C25.5703 7.06347 26.3127 6.40524 26.8231 5.70588C27.6582 4.62256 28.8182 3.55295 29.2822 2.4422C29.5142 1.87997 29.7926 1.31773 30.0246 0.741789C30.1174 0.590947 30.1638 0.440104 30.303 0.289261C30.5814 0.138419 30.999 0.0150019 31.6022 0.00128896C32.2053 -0.012424 32.7621 0.0835668 32.9477 0.275548C33.1797 0.481243 33.3653 0.70065 33.4117 0.920058C33.6437 1.93482 33.8757 2.94958 34.1077 3.97805C34.3397 4.91053 34.4789 5.84301 34.8037 6.76178C35.0821 7.516 35.9636 8.22907 37.402 8.87358C38.7012 9.46324 40.5107 9.83349 42.6451 10.094C44.0371 10.2586 45.3826 10.4369 46.7746 10.574C47.517 10.6563 48.3522 10.6837 49.1409 10.7385C50.6721 10.8482 52.2497 10.9442 53.7808 11.0677C54.4768 11.1225 54.9408 11.2733 54.9872 11.4928C55.08 11.6985 54.6624 11.9041 53.92 11.9864C53.4096 12.0413 52.8529 12.0824 52.2961 12.0824C51.0897 12.0961 49.8369 12.0824 48.6306 12.0824C48.7234 12.055 48.7234 12.0276 48.7234 12.0138Z" fill="#FC4C03"/>
</svg>
