<svg width="301" height="276" viewBox="0 0 301 276" fill="none" xmlns="http://www.w3.org/2000/svg">
<path d="M156.8 20.0545C117.83 1.71696 92.5681 28.7666 85.1875 46.759L83.948 50.8545C86.6051 86.3465 50.5186 99.2951 31.3289 100.651C1.80617 106.862 1.56014 137.129 6.23457 150.192C13.7754 171.265 21.2419 186.053 22.8411 192.708C21.0697 226.129 24.5632 239.907 26.5314 242.618C47.7878 281.068 85.5769 272.195 101.814 262.952C130.156 241.361 152.987 243.111 160.86 246.685C189.202 266.797 214.739 268.128 223.965 266.28C271.791 250.308 263.328 211.809 253.118 194.556C240.423 160.839 258.408 127.516 268.987 115.069C298.509 69.8171 283.01 42.4834 271.57 34.473C259.761 20.2763 225.072 33.8569 205.882 42.9763C192.228 47.0431 164.427 27.6951 156.8 20.0545Z" fill="#070707"/>
<path d="M162.761 11.2924C122.271 -7.75863 96.0229 20.3435 88.3543 39.036L87.0666 43.2909C89.8272 80.1639 52.3332 93.6164 32.3949 95.0247C1.72059 101.477 1.46497 132.922 6.32173 146.493C14.1567 168.386 21.9145 183.75 23.576 190.664C21.7356 225.386 25.3654 239.7 27.4103 242.516C49.4958 282.462 88.7589 273.244 105.63 263.642C135.077 241.211 158.799 243.029 166.978 246.742C196.426 267.636 222.959 269.019 232.545 267.098C282.237 250.506 273.444 210.509 262.836 192.584C249.646 157.555 268.331 122.935 279.323 110.004C309.997 62.9913 293.893 34.594 282.007 26.272C269.737 11.5228 233.695 25.6319 213.757 35.1062C199.57 39.3312 170.685 19.2303 162.761 11.2924Z" stroke="black" stroke-width="8"/>
<path d="M135.338 165.873V164.488C135.374 158.06 135.977 152.947 137.149 149.147C138.357 145.347 140.061 142.293 142.263 139.985C144.464 137.641 147.146 135.493 150.306 133.54C152.472 132.19 154.408 130.716 156.112 129.118C157.852 127.485 159.219 125.674 160.214 123.685C161.208 121.661 161.705 119.406 161.705 116.92C161.705 114.115 161.048 111.682 159.734 109.623C158.42 107.563 156.645 105.965 154.408 104.829C152.206 103.692 149.738 103.124 147.004 103.124C144.482 103.124 142.085 103.675 139.812 104.775C137.575 105.841 135.711 107.474 134.219 109.676C132.763 111.842 131.947 114.594 131.769 117.932H112.806C112.984 111.185 114.617 105.539 117.707 100.993C120.832 96.448 124.951 93.0389 130.065 90.7662C135.214 88.4934 140.896 87.3571 147.11 87.3571C153.893 87.3571 159.859 88.5467 165.008 90.926C170.192 93.3052 174.223 96.6966 177.099 101.1C180.011 105.468 181.467 110.653 181.467 116.654C181.467 120.702 180.81 124.324 179.496 127.52C178.218 130.716 176.389 133.557 174.01 136.043C171.631 138.529 168.808 140.748 165.54 142.702C162.664 144.477 160.303 146.324 158.456 148.241C156.645 150.159 155.295 152.414 154.408 155.006C153.555 157.563 153.112 160.724 153.076 164.488V165.873H135.338ZM144.607 199.111C141.411 199.111 138.658 197.975 136.35 195.702C134.042 193.43 132.888 190.66 132.888 187.393C132.888 184.197 134.042 181.462 136.35 179.189C138.658 176.917 141.411 175.78 144.607 175.78C147.767 175.78 150.501 176.917 152.81 179.189C155.153 181.462 156.325 184.197 156.325 187.393C156.325 189.559 155.775 191.53 154.674 193.305C153.609 195.081 152.188 196.501 150.413 197.567C148.673 198.596 146.737 199.111 144.607 199.111Z" fill="white"/>
</svg>
