<svg width="36" height="36" viewBox="0 0 36 36" fill="none" xmlns="http://www.w3.org/2000/svg">
<g clip-path="url(#clip0_177_267)">
<path d="M35.9579 12.2107L35.3329 12.6048L32.2203 14.5593L18.8864 22.927L18.7181 23.038L18.682 23.0602L18.003 23.4877L17.979 23.4989L17.4201 23.1491L17.3179 23.0825L4.68696 15.1535L3.82774 14.6149L0.0420469 12.2384L0 12.2107L3.82774 9.8064L17.5463 1.19446H18.4116L32.2203 9.86188L32.677 10.1507L35.9579 12.2107Z" fill="#C0874A"/>
<path d="M4.37988 0.0996094H31.6553C32.2953 0.0996094 32.7959 0.568708 32.7959 1.12988V28.1201C32.7957 28.6751 32.2956 29.1436 31.6553 29.1436H4.37988C3.74622 29.1436 3.24527 28.6754 3.24512 28.1201V1.12988C3.24512 0.568389 3.74645 0.0996094 4.37988 0.0996094Z" fill="#181917" stroke="white" stroke-width="0.2"/>
<path d="M21.1851 5.28052H7.79004V7.06491H21.1851V5.28052Z" fill="#A2CC86"/>
<path d="M21.1851 4.99872H7.79004V6.78311H21.1851V4.99872Z" fill="#53A654"/>
<path d="M28.1456 15.0948H7.79004V16.8792H28.1456V15.0948Z" fill="#A2CC86"/>
<path d="M28.1456 14.813H7.79004V16.5974H28.1456V14.813Z" fill="#53A654"/>
<path d="M28.1456 20.002H7.79004V21.7864H28.1456V20.002Z" fill="#A2CC86"/>
<path d="M28.1456 19.7203H7.79004V21.5047H28.1456V19.7203Z" fill="#53A654"/>
<path d="M28.1456 10.1876H7.79004V11.972H28.1456V10.1876Z" fill="#A2CC86"/>
<path d="M28.1456 9.90588H7.79004V11.6903H28.1456V9.90588Z" fill="#53A654"/>
<path d="M18.021 22.6489L17.8107 22.7729L13.7425 25.1481L13.2437 25.4424L0.871258 32.666L0.0419922 33.1462V12.1517L5.02349 15.0587L17.342 22.2514L17.4381 22.3082L18.003 22.6386L18.021 22.6489Z" fill="#F0BA7D"/>
<path d="M35.876 11.7628C35.9442 11.7229 36 11.755 36 11.834V32.5464C36 32.6254 35.9986 32.6889 35.997 32.6875C35.9953 32.686 35.9872 32.6802 35.9789 32.6745C35.9706 32.6688 35.9584 32.6607 35.9518 32.6565C35.9452 32.6522 35.9385 32.6487 35.9368 32.6487C35.9351 32.6487 35.8779 32.6161 35.8097 32.5763L18.6678 22.5698C18.5996 22.53 18.4881 22.4646 18.42 22.4244L18.361 22.3896C18.293 22.3495 18.1886 22.2876 18.1292 22.2521C18.0697 22.2166 18.0769 22.1551 18.1453 22.1154L18.5818 21.862C18.6502 21.8224 18.7101 21.7875 18.7151 21.7847C18.7201 21.7819 18.7281 21.7772 18.7331 21.7744C18.7381 21.7716 18.798 21.7368 18.8664 21.6971L19.2489 21.4748C19.3172 21.4351 19.4289 21.37 19.4972 21.3302L35.876 11.7628Z" fill="#E5A864"/>
<path opacity="0.68" d="M26.518 7.96549C28.0008 7.96549 29.2029 6.76339 29.2029 5.28053C29.2029 3.79768 28.0008 2.59558 26.518 2.59558C25.0351 2.59558 23.833 3.79768 23.833 5.28053C23.833 6.76339 25.0351 7.96549 26.518 7.96549Z" fill="#EEF3CA"/>
<path d="M35.9999 29.9005V33.1213H35.9639L35.4471 33.1454H1.94683L1.92285 32.6466C2.52979 32.232 3.33487 31.6731 3.85771 31.3186L3.92978 31.2705L5.6845 30.0627L8.42458 28.1699L9.2177 27.623L17.5402 21.8845L18.099 21.4938C18.2312 21.4098 18.3815 21.3376 18.5437 21.2896C18.736 21.2235 18.9463 21.1814 19.1566 21.1634C19.2287 21.1574 19.2948 21.1514 19.3669 21.1574C19.439 21.1454 19.5112 21.1454 19.5832 21.1454C19.7755 21.1394 19.9619 21.1574 20.1421 21.1934C20.3343 21.2294 20.5086 21.2896 20.6649 21.3737L26.9744 24.883L30.093 26.6195L30.9043 27.0702L33.8426 28.7046L35.7775 29.7802C35.8316 29.8103 35.8917 29.8403 35.9518 29.8764C35.9639 29.8825 35.9819 29.8945 35.9999 29.9005Z" fill="#C0874A"/>
<path d="M35.9999 31.0362V33.1454H0.0419922V31.0362C0.672977 30.6516 1.50224 30.1289 2.04302 29.8044L2.11509 29.7563L3.9238 28.6327L6.75402 26.878L7.57127 26.3673L16.1582 21.0372L16.735 20.6768C17.0355 20.4965 17.4261 20.4063 17.8107 20.4003C17.8827 20.3942 17.9488 20.3942 18.021 20.4003C18.0931 20.3942 18.1652 20.3942 18.2373 20.4003C18.4056 20.4003 18.5679 20.4184 18.7241 20.4544C18.9404 20.4965 19.1387 20.5746 19.307 20.6768L20.1422 21.1935L25.4422 24.4865L28.4707 26.3674L29.258 26.86L32.1183 28.6328L33.999 29.8045C34.0531 29.8346 34.1072 29.8646 34.1673 29.9006C34.5519 30.1471 35.0445 30.4536 35.5073 30.7359C35.6755 30.8439 35.8437 30.9461 35.9999 31.0362Z" fill="#ECB168"/>
<path opacity="0.2" d="M32.8931 1.12964V1.43009C32.8931 0.805219 32.3403 0.300445 31.6553 0.300445H4.38036C3.70142 0.300445 3.14258 0.805149 3.14258 1.43009V1.12964C3.14251 0.504703 3.70142 0 4.38036 0H31.6554C32.3403 0 32.8931 0.504703 32.8931 1.12964Z" fill="#BADB9E"/>
</g>
<defs>
<clipPath id="clip0_177_267">
<rect width="36" height="36" fill="white"/>
</clipPath>
</defs>
</svg>
