<svg width="36" height="36" viewBox="0 0 36 36" fill="none" xmlns="http://www.w3.org/2000/svg">
<path fill-rule="evenodd" clip-rule="evenodd" d="M32.4598 28.9915C31.5338 31.8055 27.9059 33.2088 25.314 32.9748C21.7741 32.6548 17.9222 30.7773 14.9983 28.7093C10.7004 25.6694 6.67449 20.9671 4.32856 15.9772C2.6706 12.4513 2.29861 8.11626 4.76455 4.90235C5.67652 3.71438 6.66249 3.07991 8.14445 3.00591C10.2004 2.90592 10.4884 4.08209 11.1944 5.91404C11.7204 7.284 12.4223 8.68147 12.8143 10.1014C13.5483 12.7514 10.9824 12.8621 10.6584 15.0281C10.4564 16.394 12.1124 18.2258 12.8603 19.1998C14.3263 21.1078 16.0882 22.7534 18.0762 24.0054C19.2142 24.7233 21.0521 26.0171 22.3561 25.3032C24.364 24.2032 24.174 20.8174 26.9819 21.9634C28.4359 22.5554 29.8439 23.4097 31.2318 24.1577C33.3778 25.3117 33.2778 26.5076 32.4598 28.9915C33.0718 27.1356 31.8478 30.8475 32.4598 28.9915Z" fill="white"/>
</svg>
