<svg width="24" height="31" viewBox="0 0 24 31" fill="none" xmlns="http://www.w3.org/2000/svg">
<g clip-path="url(#clip0_177_5192)">
<g clip-path="url(#clip1_177_5192)">
<path d="M4.5 0.75C2.43164 0.75 0.75 2.43164 0.75 4.5V27C0.75 29.0684 2.43164 30.75 4.5 30.75H19.5C21.5684 30.75 23.25 29.0684 23.25 27V10.125H15.75C14.7129 10.125 13.875 9.28711 13.875 8.25V0.75H4.5ZM15.75 0.75V8.25H23.25L15.75 0.75ZM5.4375 4.5H9.1875C9.70312 4.5 10.125 4.92188 10.125 5.4375C10.125 5.95312 9.70312 6.375 9.1875 6.375H5.4375C4.92188 6.375 4.5 5.95312 4.5 5.4375C4.5 4.92188 4.92188 4.5 5.4375 4.5ZM5.4375 8.25H9.1875C9.70312 8.25 10.125 8.67188 10.125 9.1875C10.125 9.70312 9.70312 10.125 9.1875 10.125H5.4375C4.92188 10.125 4.5 9.70312 4.5 9.1875C4.5 8.67188 4.92188 8.25 5.4375 8.25ZM8.61328 23.1211C8.25586 24.3105 7.16016 25.125 5.91797 25.125H5.4375C4.92188 25.125 4.5 24.7031 4.5 24.1875C4.5 23.6719 4.92188 23.25 5.4375 23.25H5.91797C6.33398 23.25 6.69727 22.9805 6.81445 22.582L7.6875 19.6816C7.88672 19.0195 8.49609 18.5625 9.1875 18.5625C9.87891 18.5625 10.4883 19.0137 10.6875 19.6816L11.3672 21.9434C11.8008 21.5801 12.3516 21.375 12.9375 21.375C13.8691 21.375 14.7188 21.9023 15.1348 22.7344L15.3926 23.25H18.5625C19.0781 23.25 19.5 23.6719 19.5 24.1875C19.5 24.7031 19.0781 25.125 18.5625 25.125H14.8125C14.4551 25.125 14.1328 24.9258 13.9746 24.6094L13.459 23.5723C13.3594 23.373 13.1602 23.25 12.9434 23.25C12.7266 23.25 12.5215 23.373 12.4277 23.5723L11.9121 24.6094C11.7422 24.9551 11.373 25.1602 10.9922 25.125C10.6113 25.0898 10.2832 24.8262 10.1777 24.4629L9.1875 21.1992L8.61328 23.1211Z" fill="#FF7846"/>
</g>
</g>
<defs>
<clipPath id="clip0_177_5192">
<rect width="22.5" height="30" fill="white" transform="translate(0.75 0.75)"/>
</clipPath>
<clipPath id="clip1_177_5192">
<path d="M0.75 0.75H23.25V30.75H0.75V0.75Z" fill="white"/>
</clipPath>
</defs>
</svg>
