<svg width="27" height="31" viewBox="0 0 27 31" fill="none" xmlns="http://www.w3.org/2000/svg">
<g clip-path="url(#clip0_177_4881)">
<g clip-path="url(#clip1_177_4881)">
<path d="M12.8493 0.779297C13.0309 0.744141 13.2184 0.744141 13.4001 0.779297L25.1188 3.12305C25.7751 3.25195 26.2497 3.83203 26.2497 4.5C26.2497 5.16797 25.7751 5.74805 25.1188 5.87695L20.6247 6.7793V10.125C20.6247 14.2676 17.2673 17.625 13.1247 17.625C8.9821 17.625 5.62468 14.2676 5.62468 10.125V6.7793L2.81218 6.2168V10.0312L3.7321 14.625C3.78483 14.9004 3.71452 15.1875 3.53874 15.4043C3.36296 15.6211 3.09343 15.75 2.81218 15.75H0.937179C0.655929 15.75 0.392257 15.627 0.210616 15.4043C0.0289755 15.1816 -0.041337 14.9004 0.0172568 14.625L0.937179 10.0312V5.82422C0.380538 5.63086 -0.000321365 5.10352 -0.000321365 4.5C-0.000321365 3.83203 0.474288 3.25195 1.13054 3.12305L12.8493 0.779297ZM6.55632 19.9512C7.17155 19.752 7.83366 19.9746 8.27898 20.4492L12.4391 24.873C12.8083 25.2656 13.4352 25.2656 13.8044 24.873L17.9645 20.4492C18.4098 19.9746 19.0719 19.752 19.6872 19.9512C23.4958 21.1758 26.2497 24.7383 26.2497 28.9512C26.2497 29.9473 25.4411 30.75 24.4508 30.75H1.79851C0.808272 30.75 -0.000321365 29.9414 -0.000321365 28.9512C-0.000321365 24.7383 2.75359 21.1758 6.55632 19.9512Z" fill="#FF7846"/>
</g>
</g>
<defs>
<clipPath id="clip0_177_4881">
<rect width="26.25" height="30" fill="white" transform="translate(0 0.75)"/>
</clipPath>
<clipPath id="clip1_177_4881">
<path d="M0 0.75H26.25V30.75H0V0.75Z" fill="white"/>
</clipPath>
</defs>
</svg>
