<svg width="38" height="31" viewBox="0 0 38 31" fill="none" xmlns="http://www.w3.org/2000/svg">
<g clip-path="url(#clip0_177_4920)">
<g clip-path="url(#clip1_177_4920)">
<path d="M12.7912 1.24756C13.5119 0.585449 14.6193 0.585449 15.3341 1.24756L27.5216 12.4976C27.9142 12.8608 28.1251 13.3647 28.1251 13.8745H19.6876C18.5685 13.8745 17.5607 14.3667 16.8751 15.146V12.937C16.8751 12.4214 16.4533 11.9995 15.9376 11.9995H12.1876C11.672 11.9995 11.2501 12.4214 11.2501 12.937V16.687C11.2501 17.2026 11.672 17.6245 12.1876 17.6245H15.9376V25.1245H6.56264C5.0099 25.1245 3.75014 23.8647 3.75014 22.312V15.7495H1.87514C1.1017 15.7495 0.410292 15.2749 0.129042 14.5601C-0.152208 13.8452 0.0352917 13.0249 0.603651 12.4976L12.7912 1.24756ZM20.6251 18.562V26.9995H31.8751V18.562H20.6251ZM17.8126 17.6245C17.8126 16.5874 18.6505 15.7495 19.6876 15.7495H32.8126C33.8497 15.7495 34.6876 16.5874 34.6876 17.6245V26.9995H36.5626C37.0783 26.9995 37.5001 27.4214 37.5001 27.937C37.5001 29.4897 36.2404 30.7495 34.6876 30.7495H31.8751H20.6251H17.8126C16.2599 30.7495 15.0001 29.4897 15.0001 27.937C15.0001 27.4214 15.422 26.9995 15.9376 26.9995H17.8126V17.6245Z" fill="#FF7846"/>
</g>
</g>
<defs>
<clipPath id="clip0_177_4920">
<rect width="37.5" height="30" fill="white" transform="translate(0 0.75)"/>
</clipPath>
<clipPath id="clip1_177_4920">
<path d="M0 0.75H37.5V30.75H0V0.75Z" fill="white"/>
</clipPath>
</defs>
</svg>
