<svg width="30" height="31" viewBox="0 0 30 31" fill="none" xmlns="http://www.w3.org/2000/svg">
<g clip-path="url(#clip0_177_4907)">
<g clip-path="url(#clip1_177_4907)">
<path d="M10.7812 3.5625H19.2188C19.4766 3.5625 19.6875 3.77344 19.6875 4.03125V6.375H10.3125V4.03125C10.3125 3.77344 10.5234 3.5625 10.7812 3.5625ZM7.5 4.03125V6.375H3.75C1.68164 6.375 0 8.05664 0 10.125V15.75H11.25H18.75H30V10.125C30 8.05664 28.3184 6.375 26.25 6.375H22.5V4.03125C22.5 2.2207 21.0293 0.75 19.2188 0.75H10.7812C8.9707 0.75 7.5 2.2207 7.5 4.03125ZM30 17.625H18.75V19.5C18.75 20.5371 17.9121 21.375 16.875 21.375H13.125C12.0879 21.375 11.25 20.5371 11.25 19.5V17.625H0V25.125C0 27.1934 1.68164 28.875 3.75 28.875H26.25C28.3184 28.875 30 27.1934 30 25.125V17.625Z" fill="#FF7846"/>
</g>
</g>
<defs>
<clipPath id="clip0_177_4907">
<rect width="30" height="30" fill="white" transform="translate(0 0.75)"/>
</clipPath>
<clipPath id="clip1_177_4907">
<path d="M0 0.75H30V30.75H0V0.75Z" fill="white"/>
</clipPath>
</defs>
</svg>
