<svg width="38" height="31" viewBox="0 0 38 31" fill="none" xmlns="http://www.w3.org/2000/svg">
<g clip-path="url(#clip0_177_4894)">
<g clip-path="url(#clip1_177_4894)">
<path d="M3.75 6.375C3.75 4.30664 5.43164 2.625 7.5 2.625H30C32.0684 2.625 33.75 4.30664 33.75 6.375V21.375H30V6.375H7.5V21.375H3.75V6.375ZM0 24.375C0 23.7539 0.503906 23.25 1.125 23.25H36.375C36.9961 23.25 37.5 23.7539 37.5 24.375C37.5 26.8594 35.4844 28.875 33 28.875H4.5C2.01562 28.875 0 26.8594 0 24.375ZM16.4648 12.9961L14.6484 14.8125L16.4648 16.6289C17.0156 17.1797 17.0156 18.0703 16.4648 18.6152C15.9141 19.1602 15.0234 19.166 14.4785 18.6152L11.666 15.8027C11.1152 15.252 11.1152 14.3613 11.666 13.8164L14.4785 11.0039C15.0293 10.4531 15.9199 10.4531 16.4648 11.0039C17.0098 11.5547 17.0156 12.4453 16.4648 12.9902V12.9961ZM23.0273 11.0039L25.8398 13.8164C26.3906 14.3672 26.3906 15.2578 25.8398 15.8027L23.0273 18.6152C22.4766 19.166 21.5859 19.166 21.041 18.6152C20.4961 18.0645 20.4902 17.1738 21.041 16.6289L22.8574 14.8125L21.041 12.9961C20.4902 12.4453 20.4902 11.5547 21.041 11.0098C21.5918 10.4648 22.4824 10.459 23.0273 11.0098V11.0039Z" fill="#FF7846"/>
</g>
</g>
<defs>
<clipPath id="clip0_177_4894">
<rect width="37.5" height="30" fill="white" transform="translate(0 0.75)"/>
</clipPath>
<clipPath id="clip1_177_4894">
<path d="M0 0.75H37.5V30.75H0V0.75Z" fill="white"/>
</clipPath>
</defs>
</svg>
