<svg width="24" height="31" viewBox="0 0 24 31" fill="none" xmlns="http://www.w3.org/2000/svg">
<g clip-path="url(#clip0_177_5173)">
<g clip-path="url(#clip1_177_5173)">
<path d="M4.5 0.75C2.43164 0.75 0.75 2.43164 0.75 4.5V27C0.75 29.0684 2.43164 30.75 4.5 30.75H19.5C21.5684 30.75 23.25 29.0684 23.25 27V10.125H15.75C14.7129 10.125 13.875 9.28711 13.875 8.25V0.75H4.5ZM15.75 0.75V8.25H23.25L15.75 0.75ZM7.3125 15.75H16.6875C17.2031 15.75 17.625 16.1719 17.625 16.6875C17.625 17.2031 17.2031 17.625 16.6875 17.625H7.3125C6.79688 17.625 6.375 17.2031 6.375 16.6875C6.375 16.1719 6.79688 15.75 7.3125 15.75ZM7.3125 19.5H16.6875C17.2031 19.5 17.625 19.9219 17.625 20.4375C17.625 20.9531 17.2031 21.375 16.6875 21.375H7.3125C6.79688 21.375 6.375 20.9531 6.375 20.4375C6.375 19.9219 6.79688 19.5 7.3125 19.5ZM7.3125 23.25H16.6875C17.2031 23.25 17.625 23.6719 17.625 24.1875C17.625 24.7031 17.2031 25.125 16.6875 25.125H7.3125C6.79688 25.125 6.375 24.7031 6.375 24.1875C6.375 23.6719 6.79688 23.25 7.3125 23.25Z" fill="#FF7846"/>
</g>
</g>
<defs>
<clipPath id="clip0_177_5173">
<rect width="22.5" height="30" fill="white" transform="translate(0.75 0.75)"/>
</clipPath>
<clipPath id="clip1_177_5173">
<path d="M0.75 0.75H23.25V30.75H0.75V0.75Z" fill="white"/>
</clipPath>
</defs>
</svg>
