<svg width="38" height="31" viewBox="0 0 38 31" fill="none" xmlns="http://www.w3.org/2000/svg">
<g clip-path="url(#clip0_177_4933)">
<g clip-path="url(#clip1_177_4933)">
<path d="M23.0151 0.82031C22.019 0.533201 20.9819 1.11328 20.6948 2.10937L13.1948 28.3594C12.9077 29.3555 13.4878 30.3926 14.4839 30.6797C15.48 30.9668 16.5171 30.3867 16.8042 29.3906L24.3042 3.14062C24.5913 2.14453 24.0112 1.10742 23.0151 0.82031ZM27.7378 7.85742C27.0054 8.58984 27.0054 9.77929 27.7378 10.5117L32.9702 15.75L27.7319 20.9883C26.9995 21.7207 26.9995 22.9102 27.7319 23.6426C28.4644 24.375 29.6538 24.375 30.3862 23.6426L36.9487 17.0801C37.6811 16.3477 37.6811 15.1582 36.9487 14.4258L30.3862 7.86328C29.6538 7.13086 28.4644 7.13086 27.7319 7.86328L27.7378 7.85742ZM9.76709 7.85742C9.03467 7.125 7.84521 7.125 7.11279 7.85742L0.550293 14.4199C-0.182129 15.1523 -0.182129 16.3418 0.550293 17.0742L7.11279 23.6367C7.84521 24.3691 9.03467 24.3691 9.76709 23.6367C10.4995 22.9043 10.4995 21.7148 9.76709 20.9824L4.52881 15.75L9.76709 10.5117C10.4995 9.77929 10.4995 8.58984 9.76709 7.85742Z" fill="#FF7846"/>
</g>
</g>
<defs>
<clipPath id="clip0_177_4933">
<rect width="37.5" height="30" fill="white" transform="translate(0 0.75)"/>
</clipPath>
<clipPath id="clip1_177_4933">
<path d="M0 0.75H37.5V30.75H0V0.75Z" fill="white"/>
</clipPath>
</defs>
</svg>
