<svg width="28" height="31" viewBox="0 0 28 31" fill="none" xmlns="http://www.w3.org/2000/svg">
<g clip-path="url(#clip0_177_5202)">
<g clip-path="url(#clip1_177_5202)">
<path d="M8.375 0.75C9.41211 0.75 10.25 1.58789 10.25 2.625V4.5H17.75V2.625C17.75 1.58789 18.5879 0.75 19.625 0.75C20.6621 0.75 21.5 1.58789 21.5 2.625V4.5H24.3125C25.8652 4.5 27.125 5.75977 27.125 7.3125V10.125H0.875V7.3125C0.875 5.75977 2.13477 4.5 3.6875 4.5H6.5V2.625C6.5 1.58789 7.33789 0.75 8.375 0.75ZM0.875 12H27.125V27.9375C27.125 29.4902 25.8652 30.75 24.3125 30.75H3.6875C2.13477 30.75 0.875 29.4902 0.875 27.9375V12ZM20.1523 18.6211C20.7031 18.0703 20.7031 17.1797 20.1523 16.6348C19.6016 16.0898 18.7109 16.084 18.166 16.6348L12.5996 22.2012L9.8457 19.4473C9.29492 18.8965 8.4043 18.8965 7.85938 19.4473C7.31445 19.998 7.30859 20.8887 7.85938 21.4336L11.6094 25.1836C12.1602 25.7344 13.0508 25.7344 13.5957 25.1836L20.1523 18.6211Z" fill="#FF7846"/>
</g>
</g>
<defs>
<clipPath id="clip0_177_5202">
<rect width="26.25" height="30" fill="white" transform="translate(0.875 0.75)"/>
</clipPath>
<clipPath id="clip1_177_5202">
<path d="M0.875 0.75H27.125V30.75H0.875V0.75Z" fill="white"/>
</clipPath>
</defs>
</svg>
