<svg width="63" height="31" viewBox="0 0 63 31" fill="none" xmlns="http://www.w3.org/2000/svg">
<path d="M55.4426 17.6562C53.1195 17.7368 50.7964 17.7771 48.5261 17.898C45.1471 18.0995 42.56 18.7847 40.9761 19.9536C39.9201 20.7396 38.9698 21.5457 38.1778 22.3922C36.0659 24.5889 34.7987 26.8864 33.2148 29.1234C33.0036 29.4257 32.9508 29.7683 32.7924 30.0706C32.7396 30.1915 32.6868 30.3326 32.5284 30.4333C32.1589 30.7356 31.4725 30.8969 30.6805 30.8566C29.8886 30.8162 29.255 30.5744 29.2022 30.2318C29.1494 30.0504 29.1494 29.8489 29.255 29.6474C29.5718 28.8815 29.4662 28.1359 29.255 27.3902C28.8326 25.919 28.2518 24.4478 27.0375 23.0371C25.5064 21.3644 23.1833 19.8932 19.5402 18.7444C17.6923 18.16 15.7916 17.5957 13.8909 17.0113C10.987 16.1245 7.66077 15.5401 4.22893 15.0161C3.70095 14.9355 3.06738 14.9153 2.43381 14.8347C2.01143 14.7944 1.53625 14.7541 1.11387 14.6735C0.216311 14.5123 -0.153272 14.1696 0.0579187 13.827C0.269109 13.5046 1.06107 13.3031 2.01143 13.3434C2.6978 13.3635 3.43697 13.424 4.12333 13.5046C8.03036 13.9681 12.043 13.8673 16.0556 13.7263C17.5339 13.686 19.0123 13.6255 20.4378 13.5046C23.764 13.2023 26.3511 12.4969 27.8823 11.3079C29.0966 10.3808 29.9414 9.41347 30.5221 8.38566C31.4725 6.79355 32.7924 5.22159 33.3204 3.58918C33.5844 2.76289 33.9012 1.93661 34.1652 1.09017C34.2708 0.868485 34.3236 0.646799 34.482 0.425113C34.7987 0.203427 35.2739 0.0220476 35.9603 0.00189432C36.6467 -0.018259 37.2802 0.122814 37.4914 0.40496C37.7554 0.707259 37.9666 1.02971 38.0194 1.35216C38.2834 2.84351 38.5474 4.33485 38.8114 5.84634C39.0753 7.21677 39.2337 8.58719 39.6033 9.93746C39.9201 11.0459 40.9233 12.0939 42.56 13.0411C44.0383 13.9077 46.0974 14.4518 48.5261 14.8347C50.11 15.0765 51.6412 15.3385 53.2251 15.5401C54.0699 15.661 55.0202 15.7013 55.9178 15.7819C57.6601 15.9431 59.4552 16.0842 61.1975 16.2656C61.9895 16.3462 62.5175 16.5679 62.5703 16.8903C62.6759 17.1926 62.2007 17.4949 61.3559 17.6159C60.7752 17.6965 60.1416 17.7569 59.508 17.7569C58.1353 17.7771 56.7097 17.7569 55.337 17.7569C55.4426 17.7166 55.4426 17.6763 55.4426 17.6562Z" fill="#FC4C03"/>
</svg>
