<svg width="31" height="24" viewBox="0 0 31 24" fill="none" xmlns="http://www.w3.org/2000/svg">
<g clip-path="url(#clip0_177_2073)">
<path d="M3.98438 4.5C3.98438 2.84531 5.32969 1.5 6.98438 1.5H24.9844C26.6391 1.5 27.9844 2.84531 27.9844 4.5V16.5H24.9844V4.5H6.98438V16.5H3.98438V4.5ZM0.984375 18.9C0.984375 18.4031 1.3875 18 1.88438 18H30.0844C30.5812 18 30.9844 18.4031 30.9844 18.9C30.9844 20.8875 29.3719 22.5 27.3844 22.5H4.58438C2.59688 22.5 0.984375 20.8875 0.984375 18.9ZM14.1562 9.79688L12.7031 11.25L14.1562 12.7031C14.5969 13.1438 14.5969 13.8562 14.1562 14.2922C13.7156 14.7281 13.0031 14.7328 12.5672 14.2922L10.3172 12.0422C9.87656 11.6016 9.87656 10.8891 10.3172 10.4531L12.5672 8.20312C13.0078 7.7625 13.7203 7.7625 14.1562 8.20312C14.5922 8.64375 14.5969 9.35625 14.1562 9.79219V9.79688ZM19.4062 8.20312L21.6562 10.4531C22.0969 10.8938 22.0969 11.6062 21.6562 12.0422L19.4062 14.2922C18.9656 14.7328 18.2531 14.7328 17.8172 14.2922C17.3813 13.8516 17.3766 13.1391 17.8172 12.7031L19.2703 11.25L17.8172 9.79688C17.3766 9.35625 17.3766 8.64375 17.8172 8.20781C18.2578 7.77188 18.9703 7.76719 19.4062 8.20781V8.20312Z" fill="#F6CE8A"/>
</g>
<defs>
<clipPath id="clip0_177_2073">
<path d="M0.984375 0H30.9844V24H0.984375V0Z" fill="white"/>
</clipPath>
</defs>
</svg>
