<svg width="25" height="24" viewBox="0 0 25 24" fill="none" xmlns="http://www.w3.org/2000/svg">
<g clip-path="url(#clip0_177_2060)">
<path d="M8.8125 2.25H15.5625C15.7688 2.25 15.9375 2.41875 15.9375 2.625V4.5H8.4375V2.625C8.4375 2.41875 8.60625 2.25 8.8125 2.25ZM6.1875 2.625V4.5H3.1875C1.53281 4.5 0.1875 5.84531 0.1875 7.5V12H9.1875H15.1875H24.1875V7.5C24.1875 5.84531 22.8422 4.5 21.1875 4.5H18.1875V2.625C18.1875 1.17656 17.0109 0 15.5625 0H8.8125C7.36406 0 6.1875 1.17656 6.1875 2.625ZM24.1875 13.5H15.1875V15C15.1875 15.8297 14.5172 16.5 13.6875 16.5H10.6875C9.85781 16.5 9.1875 15.8297 9.1875 15V13.5H0.1875V19.5C0.1875 21.1547 1.53281 22.5 3.1875 22.5H21.1875C22.8422 22.5 24.1875 21.1547 24.1875 19.5V13.5Z" fill="#F59E0B"/>
</g>
<defs>
<clipPath id="clip0_177_2060">
<path d="M0.1875 0H24.1875V24H0.1875V0Z" fill="white"/>
</clipPath>
</defs>
</svg>
