<svg width="31" height="24" viewBox="0 0 31 24" fill="none" xmlns="http://www.w3.org/2000/svg">
<g clip-path="url(#clip0_177_2047)">
<path d="M15.3909 1.5C15.0112 1.5 14.6362 1.56562 14.2799 1.69219L1.13148 6.44062C0.686171 6.60469 0.390858 7.02656 0.390858 7.5C0.390858 7.97344 0.686171 8.39531 1.13148 8.55938L3.84555 9.53906C3.0768 10.7484 2.64086 12.1781 2.64086 13.6828V15C2.64086 16.3313 2.13461 17.7047 1.59555 18.7875C1.29086 19.3969 0.943983 19.9969 0.540858 20.55C0.390858 20.7516 0.348671 21.0141 0.433046 21.2531C0.517421 21.4922 0.714296 21.6703 0.958046 21.7313L3.95805 22.4813C4.15492 22.5328 4.36586 22.4953 4.5393 22.3875C4.71273 22.2797 4.83461 22.1016 4.87211 21.9C5.27523 19.8938 5.07367 18.0938 4.77367 16.8047C4.62367 16.1391 4.42211 15.4594 4.14086 14.8359V13.6828C4.14086 12.2672 4.61898 10.9312 5.44867 9.8625C6.05336 9.13594 6.83617 8.55 7.75492 8.18906L15.1143 5.29688C15.4987 5.14687 15.9346 5.33437 16.0846 5.71875C16.2346 6.10313 16.0471 6.53906 15.6627 6.68906L8.30336 9.58125C7.72211 9.81094 7.21117 10.1625 6.79398 10.5938L14.2752 13.2938C14.6315 13.4203 15.0065 13.4859 15.3862 13.4859C15.7659 13.4859 16.1409 13.4203 16.4971 13.2938L29.6502 8.55938C30.0955 8.4 30.3909 7.97344 30.3909 7.5C30.3909 7.02656 30.0955 6.60469 29.6502 6.44062L16.5018 1.69219C16.1455 1.56562 15.7705 1.5 15.3909 1.5ZM6.39086 19.125C6.39086 20.7797 10.4221 22.5 15.3909 22.5C20.3596 22.5 24.3909 20.7797 24.3909 19.125L23.6737 12.3094L17.008 14.7188C16.4877 14.9062 15.9393 15 15.3909 15C14.8424 15 14.2893 14.9062 13.7737 14.7188L7.10805 12.3094L6.39086 19.125Z" fill="#3178FF"/>
</g>
<defs>
<clipPath id="clip0_177_2047">
<path d="M0.390625 0H30.3906V24H0.390625V0Z" fill="white"/>
</clipPath>
</defs>
</svg>
