<svg width="28" height="24" viewBox="0 0 28 24" fill="none" xmlns="http://www.w3.org/2000/svg">
<g clip-path="url(#clip0_177_2101)">
<path d="M19.2188 5.625C19.2188 8.18438 15.7922 12.7453 14.2875 14.625C13.9266 15.075 13.2563 15.075 12.9 14.625C11.3953 12.7453 7.96875 8.18438 7.96875 5.625C7.96875 2.51719 10.4859 0 13.5938 0C16.7016 0 19.2188 2.51719 19.2188 5.625ZM19.5938 9.39375C19.7578 9.07031 19.9078 8.74688 20.0438 8.42813C20.0672 8.37188 20.0906 8.31094 20.1141 8.25469L25.5516 6.07969C26.2922 5.78438 27.0938 6.32813 27.0938 7.125V19.8188C27.0938 20.2781 26.8125 20.6906 26.3859 20.8641L19.5938 23.5781V9.39375ZM6.54375 6.48281C6.65625 7.14375 6.88125 7.80938 7.14375 8.42813C7.27969 8.74688 7.42969 9.07031 7.59375 9.39375V21.1781L1.63594 23.5641C0.895313 23.8594 0.09375 23.3156 0.09375 22.5188V9.825C0.09375 9.36563 0.375 8.95313 0.801563 8.77969L6.54844 6.48281H6.54375ZM15.4594 15.5625C16.1109 14.7469 17.1328 13.4203 18.0938 11.9531V23.6391L9.09375 21.0656V11.9531C10.0547 13.4203 11.0766 14.7469 11.7281 15.5625C12.6891 16.7625 14.4984 16.7625 15.4594 15.5625ZM13.5938 7.125C14.091 7.125 14.5679 6.92746 14.9196 6.57583C15.2712 6.2242 15.4688 5.74728 15.4688 5.25C15.4688 4.75272 15.2712 4.27581 14.9196 3.92418C14.5679 3.57254 14.091 3.375 13.5938 3.375C13.0965 3.375 12.6196 3.57254 12.2679 3.92418C11.9163 4.27581 11.7188 4.75272 11.7188 5.25C11.7188 5.74728 11.9163 6.2242 12.2679 6.57583C12.6196 6.92746 13.0965 7.125 13.5938 7.125Z" fill="#3B82F6"/>
</g>
<defs>
<clipPath id="clip0_177_2101">
<path d="M0.09375 0H27.0938V24H0.09375V0Z" fill="white"/>
</clipPath>
</defs>
</svg>
