<svg width="19" height="24" viewBox="0 0 19 24" fill="none" xmlns="http://www.w3.org/2000/svg">
<g clip-path="url(#clip0_177_2087)">
<path d="M4.53125 8.25C4.53125 7.56056 4.66705 6.87787 4.93088 6.24091C5.19472 5.60395 5.58143 5.0252 6.06894 4.53769C6.55645 4.05018 7.1352 3.66347 7.77216 3.39963C8.40912 3.1358 9.09181 3 9.78125 3C10.4707 3 11.1534 3.1358 11.7903 3.39963C12.4273 3.66347 13.0061 4.05018 13.4936 4.53769C13.9811 5.0252 14.3678 5.60395 14.6316 6.24091C14.8955 6.87787 15.0312 7.56056 15.0312 8.25C15.0312 8.93944 14.8955 9.62213 14.6316 10.2591C14.3678 10.896 13.9811 11.4748 13.4936 11.9623C13.0061 12.4498 12.4273 12.8365 11.7903 13.1004C11.1534 13.3642 10.4707 13.5 9.78125 13.5C9.09181 13.5 8.40912 13.3642 7.77216 13.1004C7.1352 12.8365 6.55645 12.4498 6.06894 11.9623C5.58143 11.4748 5.19472 10.896 4.93088 10.2591C4.66705 9.62213 4.53125 8.93944 4.53125 8.25ZM11.2812 16.3641C15.1203 15.6609 18.0312 12.2953 18.0312 8.25C18.0312 3.69375 14.3375 0 9.78125 0C5.225 0 1.53125 3.69375 1.53125 8.25C1.53125 12.2953 4.44219 15.6609 8.28125 16.3641V18H6.78125C5.95156 18 5.28125 18.6703 5.28125 19.5C5.28125 20.3297 5.95156 21 6.78125 21H8.28125V22.5C8.28125 23.3297 8.95156 24 9.78125 24C10.6109 24 11.2812 23.3297 11.2812 22.5V21H12.7812C13.6109 21 14.2812 20.3297 14.2812 19.5C14.2812 18.6703 13.6109 18 12.7812 18H11.2812V16.3641Z" fill="#A855F7"/>
</g>
<defs>
<clipPath id="clip0_177_2087">
<path d="M0.78125 0H18.7812V24H0.78125V0Z" fill="white"/>
</clipPath>
</defs>
</svg>
